<svg preserveAspectRatio="xMidYMid meet" data-bbox="0.001 0 533.402 118.23" viewBox="0.001 0 533.402 118.23" xmlns="http://www.w3.org/2000/svg" data-type="color" role="presentation" aria-hidden="true" aria-labelledby="svgcid--p9xg7f-9acigh"><title id="svgcid--p9xg7f-9acigh"></title>
    <g>
        <path fill="#b80100" d="M114.56 93.66v23.82h-7.69V93.66h-9.63v-6.44h26.96v6.44h-9.64z" data-color="1"></path>
        <path d="M157.45 117.48h-7.7V87.23h12.15c8.04 0 12.25 3.73 12.25 9.58 0 4.07-2.13 7.16-6.2 8.71l7.75 11.96h-8.67l-6.05-10.17-3.53.29v9.88Zm3.73-15.68c3.29-.24 5.08-1.6 5.08-4.5 0-2.66-1.84-3.97-5.71-3.97h-3.24v8.57l3.87-.1Z" fill="#b80100" data-color="1"></path>
        <path d="M228.17 117.48h-7.65l-2.23-6.44h-11.23l-2.18 6.44h-7.65l10.75-30.25h9.63l10.55 30.25Zm-15.44-24.3-4.02 11.86h7.89l-3.87-11.86Z" fill="#b80100" data-color="1"></path>
        <path fill="#b80100" d="M260.45 87.22v30.25h-7.7V87.22h7.7z" data-color="1"></path>
        <path fill="#b80100" d="M288.14 117.48V87.22h7.69v23.82h12.68v6.44h-20.37z" data-color="1"></path>
        <path fill="#b80100" d="M334.6 117.48V87.22h22.12v6.2h-14.57v5.81h11.72v6.15h-11.72v5.9h14.57v6.2H334.6z" data-color="1"></path>
        <path d="M390.94 117.48h-7.7V87.23h12.15c8.04 0 12.25 3.73 12.25 9.58 0 4.07-2.13 7.16-6.2 8.71l7.75 11.96h-8.67l-6.05-10.17-3.53.29v9.88Zm3.73-15.68c3.29-.24 5.08-1.6 5.08-4.5 0-2.66-1.84-3.97-5.71-3.97h-3.24v8.57l3.87-.1Z" fill="#b80100" data-color="1"></path>
        <path d="M449.32 109.01c0-2.03-2.18-2.71-6.2-3.82-4.41-1.21-9.73-3.24-9.73-9.29 0-5.61 4.11-9.34 11.62-9.34 4.74 0 8.42 1.07 11.33 2.66l-1.5 6.34c-3-1.6-6.78-2.66-9.78-2.66-2.66 0-3.97.92-3.97 2.57 0 1.98 2.76 2.76 6.39 3.78 4.65 1.26 9.49 3.39 9.49 9.15s-4.45 9.83-12.39 9.83c-4.5 0-8.86-1.16-11.67-2.76l1.45-6.39c3 1.6 6.63 2.81 10.36 2.81 2.71 0 4.6-1.02 4.6-2.86Z" fill="#b80100" data-color="1"></path>
        <path d="M234.35 0h-60.99l-39.74 64.29c-.47.76.08 1.74.97 1.74h21.63c.4 0 .76-.2.97-.54l11.63-19.45h28.15l-11.28 18.25c-.47.76.08 1.74.97 1.74h21.64c.4 0 .76-.2.97-.54l31.93-53.41C244.38 6.76 240.55 0 234.35 0Zm-26.22 27.99h-28.52l5.95-9.95h28.72l-6.15 9.95Z" fill="#1a1a1a" data-color="2"></path>
        <path d="M348.45 0h-86.58l-39.74 64.29c-.47.76.08 1.74.97 1.74h21.63c.4 0 .76-.2.97-.54l28.37-47.45h15.3l-28.58 46.25c-.47.76.08 1.74.97 1.74h21.63c.4 0 .76-.2.97-.54l28.37-47.45h15.65L299.8 64.29c-.47.76.08 1.74.97 1.74h21.63c.4 0 .76-.2.97-.54l31.93-53.41C358.48 6.76 354.65 0 348.45 0Z" fill="#1a1a1a" data-color="2"></path>
        <path d="M133.64 47.94H87.73L116.39 0H93.4L53.66 64.29c-.47.76.08 1.74.97 1.74h69.17c.39 0 .76-.25.97-.58l9.84-15.76c.47-.76-.07-1.74-.97-1.74Z" fill="#1a1a1a" data-color="2"></path>
        <path d="M436.89 0H375.9l-39.74 64.29c-.47.76.08 1.74.97 1.74h21.63c.4 0 .76-.2.97-.54l11.63-19.45h28.15l-11.28 18.25c-.47.76.08 1.74.97 1.74h21.64c.4 0 .76-.2.97-.54l31.93-53.41C446.92 6.76 443.09 0 436.89 0Zm-26.22 27.99h-28.52l5.95-9.95h28.72l-6.15 9.95Z" fill="#1a1a1a" data-color="2"></path>
        <path d="M525.42 0h-60.99l-39.74 64.29c-.47.76.08 1.74.97 1.74h21.63c.4 0 .76-.2.97-.54l11.63-19.45h11.93l11.63 19.45c.21.34.57.54.97.54h21.63c.89 0 1.44-.98.97-1.74l-11.28-18.25h16.13l20.39-33.96C535.44 6.76 531.61 0 525.41 0ZM499.2 27.99h-28.52l5.95-9.95h28.72l-6.15 9.95Z" fill="#1a1a1a" data-color="2"></path>
        <path d="M1.14.06c-.9 0-1.44.99-.96 1.75l5.3 8.28a17.3 17.3 0 0 0 14.77 8.29h44.19c.66 0 1.26-.34 1.61-.9L76.83.06H1.14Z" fill="#b80100" data-color="1"></path>
        <path d="M25.94 31.03c-.9 0-1.45 1-.96 1.75l5.3 8.28c2.67 4.38 7.41 7.29 12.47 8.07.33.05 1.67.06 2.65.06.66 0 1.26-.34 1.6-.9l10.68-17.27H25.93Z" fill="#b80100" data-color="1"></path>
    </g>
</svg>